# Blender 5.0.1
# www.blender.org
mtllib treasure-chest.mtl
o Cube
v 0.500000 0.500000 -0.500000
v 0.500000 -0.500000 -0.500000
v 0.500000 0.500000 0.450000
v 0.500000 -0.500000 0.450000
v -0.500000 0.500000 -0.500000
v -0.500000 -0.500000 -0.500000
v -0.500000 0.500000 0.450000
v -0.500000 -0.500000 0.450000
v 0.056405 0.198325 0.450000
v 0.056405 0.117810 0.450000
v -0.056405 0.198325 0.450000
v -0.056405 0.117810 0.450000
v 0.056405 0.198325 0.500000
v 0.056405 0.117810 0.500000
v -0.056405 0.198325 0.500000
v -0.056405 0.117810 0.500000
v 0.500000 0.116049 -0.500000
v -0.500000 0.116049 0.450000
v 0.500000 0.116049 0.450000
v -0.500000 0.116049 -0.500000
v -0.500000 0.200084 0.450000
v 0.500000 0.200084 0.450000
v 0.500000 0.200084 -0.500000
v -0.500000 0.200084 -0.500000
v -0.056405 0.017701 0.450000
v 0.056405 0.017701 0.450000
v -0.056405 0.017701 0.500000
v 0.056405 0.017701 0.500000
vn -0.0000 1.0000 -0.0000
vn -0.0000 -0.0000 1.0000
vn -1.0000 -0.0000 -0.0000
vn -0.0000 -1.0000 -0.0000
vn 1.0000 -0.0000 -0.0000
vn -0.0000 -0.0000 -1.0000
vt 0.652304 0.019439
vt 0.652304 0.324048
vt 0.362926 0.324048
vt 0.362926 0.019439
vt 0.136394 0.019439
vt 0.324048 0.019439
vt 0.135858 0.154562
vt 0.691183 0.110796
vt 0.691183 0.019439
vt 0.980561 0.019439
vt 0.980561 0.110796
vt 0.652304 0.362926
vt 0.652304 0.667535
vt 0.362926 0.667535
vt 0.362926 0.362926
vt 0.691183 0.454283
vt 0.691183 0.362926
vt 0.980561 0.362926
vt 0.980561 0.454283
vt 0.110796 0.667535
vt 0.019439 0.667535
vt 0.019439 0.362926
vt 0.110796 0.362926
vt 0.324048 0.324048
vt 0.135858 0.188925
vt 0.019439 0.324048
vt 0.019439 0.019439
vt 0.111332 0.154562
vt 0.111332 0.188925
vt 0.110796 0.324048
vt 0.216129 0.706413
vt 0.216129 0.740776
vt 0.200899 0.740776
vt 0.200899 0.706413
vt 0.110796 0.019439
vt 0.107911 0.706413
vt 0.107911 0.730939
vt 0.092681 0.730939
vt 0.092681 0.706413
vt 0.136394 0.324048
vt 0.019439 0.730939
vt 0.019439 0.706413
vt 0.053802 0.706413
vt 0.053802 0.730939
vt 0.324048 0.667535
vt 0.136394 0.667535
vt 0.136394 0.362926
vt 0.324048 0.362926
vt 0.691183 0.667535
vt 0.691183 0.479881
vt 0.980561 0.479881
vt 0.980561 0.667535
vt 0.691183 0.324048
vt 0.691183 0.136394
vt 0.980561 0.136394
vt 0.980561 0.324048
vt 0.146790 0.730939
vt 0.146790 0.706413
vt 0.162020 0.706413
vt 0.162020 0.730939
vt 0.270238 0.706413
vt 0.270238 0.740776
vt 0.255008 0.740776
vt 0.255008 0.706413
vt 0.107911 0.761433
vt 0.092681 0.761433
vt 0.162020 0.761433
vt 0.146790 0.761433
vt 0.053802 0.761433
vt 0.019439 0.761433
s 0
usemtl Material
f 1/1/1 5/2/1 7/3/1 3/4/1
f 18/5/2 8/6/2 12/7/2
f 21/8/3 7/9/3 5/10/3 24/11/3
f 6/12/4 2/13/4 4/14/4 8/15/4
f 23/16/5 1/17/5 3/18/5 22/19/5
f 24/20/6 5/21/6 1/22/6 23/23/6
f 8/6/2 4/24/2 10/25/2 12/7/2
f 3/26/2 7/27/2 11/28/2 9/29/2
f 22/30/2 3/26/2 9/29/2
f 9/31/1 11/32/1 15/33/1 13/34/1
f 7/27/2 21/35/2 11/28/2
f 11/36/3 12/37/3 16/38/3 15/39/3
f 4/24/2 19/40/2 10/25/2
f 14/41/2 13/42/2 15/43/2 16/44/2
f 6/45/6 20/46/6 17/47/6 2/48/6
f 2/49/5 17/50/5 19/51/5 4/52/5
f 8/53/3 18/54/3 20/55/3 6/56/3
f 21/35/2 18/5/2 12/7/2 11/28/2
f 19/40/2 22/30/2 9/29/2 10/25/2
f 10/57/5 9/58/5 13/59/5 14/60/5
f 20/46/6 24/20/6 23/23/6 17/47/6
f 17/50/5 23/16/5 22/19/5 19/51/5
f 18/54/3 21/8/3 24/11/3 20/55/3
f 25/61/4 26/62/4 28/63/4 27/64/4
f 16/38/3 12/37/3 25/65/3 27/66/3
f 10/57/5 14/60/5 28/67/5 26/68/5
f 14/41/2 16/44/2 27/69/2 28/70/2
